# xmcd
#
# Track frame offsets: 
#        150
#        21150
#        39317
#        61392
#        85375
#        105065
#        128967
#        153122
#        172827
#        194032
#        212027
#        231512
#        249997
#        267832
#        284355
#        301377
#        322480
#
# Disc length: 4574 seconds
#
# Revision: 6
# Processed by: cddbd v1.5.2PL0 Copyright (c) Steve Scherf et al.
# Submitted via: ExactAudioCopy v0.99pb4
#
DISCID=ed11dc11
DTITLE=Various Artist - I LOVE R&B Ultimate BEST
DYEAR=2001
DGENRE=R&B
TTITLE0=Tell Me It's Real - K-Ci and JoJo
TTITLE1=Take Me There (Remix) - Blackstreet
TTITLE2=Dream On Dreamer - The Brand New Heavies
TTITLE3=Don't You Worry About A Thing - Incognito
TTITLE4=Don't Wanna Fall In Love - Elisha La'Verne
TTITLE5=I'll Be There - Eric Benet
TTITLE6=I Believe I Can Fly - R. Kelly
TTITLE7=Back At One - Brian McKnight
TTITLE8=My Lovin' (You're Never Gonna Get It) - En Vogue
TTITLE9=Request Line - Zhane
TTITLE10=I Love Your Smile - Shanice
TTITLE11=These Are The Times - Dru Hill
TTITLE12=I'll Make Love To You - Boyz 2 Men
TTITLE13=I Love You - Deberah Morgan
TTITLE14=On And On - Erykah Badu
TTITLE15=Waterfalls - TLC
TTITLE16=True Intention - Ria and Aya feat. EbS
EXTD=YEAR: 2001
EXTT0=K-Ci&JoJo
EXTT1=Blackstreet
EXTT2=The Brand New Heavies
EXTT3=Incognito
EXTT4=Elisha La'Verne
EXTT5=Eric Benet
EXTT6=R.Kelly
EXTT7=Brian McKnight
EXTT8=En Vogue
EXTT9=Zhane
EXTT10=Shanice
EXTT11=Dru Hill
EXTT12=Boyz¿¿¿Men
EXTT13=Deberah¿Morgan
EXTT14=Erykah¿Badu
EXTT15=TLC
EXTT16=Ria¿Aya¿featuring¿EbS
PLAYORDER=
